<?xml version="1.0" encoding="utf-8"?>
<!-- Generator: Adobe Illustrator 26.3.1, SVG Export Plug-In . SVG Version: 6.00 Build 0)  -->
<svg version="1.1" id="Capa_1" xmlns="http://www.w3.org/2000/svg" xmlns:xlink="http://www.w3.org/1999/xlink" x="0px" y="0px"
	 viewBox="0 0 2834.65 2834.65" style="enable-background:new 0 0 2834.65 2834.65;" xml:space="preserve">
<style type="text/css">
	.st0{fill:#EDEDED;}
	.st1{fill:#FFDE59;}
</style>
<path class="st0" d="M925.79,2546.11c-108.06-65.62-198.4-144.38-268.81-244.81c-108.31-154.5-141.29-327.28-107.05-509.99
	c35.78-190.9,104.51-368.7,245.87-510.17c91.42-91.49,203.52-151.73,316.68-210.3c74.02-38.31,150.94-71.95,213.71-128.57
	c151.32-136.47,186.06-347.8,89.23-542.5c-17.18-34.55-37.13-67.73-52.6-104.19c69.83,33.53,126.38,82.88,179.98,136.23
	c195.25,194.35,239.47,428,176.03,687.84c-41.68,170.72-116.31,324.84-245.48,448.01c-68.3,65.13-147.81,114.55-231.01,158.18
	c-85.43,44.81-174.56,83.16-252.57,141.03c-156.97,116.45-216.02,323.18-145.53,506.02c18.48,47.92,39.73,94.37,69.11,136.79
	C919.67,2518.79,927.77,2527.69,925.79,2546.11z"/>
<path class="st1" d="M1458.53,2556.05c-112.53-69.87-208.22-157.87-279.82-270.79c-113.75-179.4-117.58-373.03-67.39-571.28
	c28.48-112.5,70.33-221.01,140.4-314.93c85.99-115.26,192.95-207.18,322.11-272.4c67.9-34.29,135.54-69.19,202.23-105.78
	c216.16-118.59,294.89-359.64,191.4-583.76c-20.18-43.71-42.27-86.47-77.15-135.63c42.95,14.62,67.13,37.19,92.76,56.48
	c140.87,105.96,246.22,237.48,287.39,412.47c20.25,86.07,24.18,173.58,9.45,261.43c-50.53,301.49-183.65,546.31-466.26,692.56
	c-84.34,43.64-171.28,82.83-251.17,135.02c-203.63,132.99-265.22,384.13-146.05,597.59c16.98,30.42,34.18,60.72,51.27,91.07
	C1464.64,2550.75,1461.58,2553.4,1458.53,2556.05z"/>
</svg>
