<svg id="visual" viewBox="0 0 1920 1080" width="1920" height="1080" xmlns="http://www.w3.org/2000/svg" xmlns:xlink="http://www.w3.org/1999/xlink" version="1.1"><path d="M735 0L710.5 90C686 180 637 360 631.8 540C626.7 720 665.3 900 684.7 990L704 1080L0 1080L0 990C0 900 0 720 0 540C0 360 0 180 0 90L0 0Z" fill="#d4e5f3"></path><path d="M450 0L462.8 90C475.7 180 501.3 360 520.8 540C540.3 720 553.7 900 560.3 990L567 1080L0 1080L0 990C0 900 0 720 0 540C0 360 0 180 0 90L0 0Z" fill="#c4dbef"></path><path d="M411 0L401.5 90C392 180 373 360 375 540C377 720 400 900 411.5 990L423 1080L0 1080L0 990C0 900 0 720 0 540C0 360 0 180 0 90L0 0Z" fill="#b5d1eb"></path><path d="M433 0L453.5 90C474 180 515 360 490.7 540C466.3 720 376.7 900 331.8 990L287 1080L0 1080L0 990C0 900 0 720 0 540C0 360 0 180 0 90L0 0Z" fill="#a6c8e7"></path><path d="M309 0L298.8 90C288.7 180 268.3 360 282.7 540C297 720 346 900 370.5 990L395 1080L0 1080L0 990C0 900 0 720 0 540C0 360 0 180 0 90L0 0Z" fill="#96bee4"></path><path d="M298 0L311.8 90C325.7 180 353.3 360 353.2 540C353 720 325 900 311 990L297 1080L0 1080L0 990C0 900 0 720 0 540C0 360 0 180 0 90L0 0Z" fill="#87b4e0"></path><path d="M341 0L350.5 90C360 180 379 360 349.3 540C319.7 720 241.3 900 202.2 990L163 1080L0 1080L0 990C0 900 0 720 0 540C0 360 0 180 0 90L0 0Z" fill="#79aadc"></path><path d="M262 0L259.5 90C257 180 252 360 249.7 540C247.3 720 247.7 900 247.8 990L248 1080L0 1080L0 990C0 900 0 720 0 540C0 360 0 180 0 90L0 0Z" fill="#6aa0d8"></path><path d="M120 0L126.8 90C133.7 180 147.3 360 161 540C174.7 720 188.3 900 195.2 990L202 1080L0 1080L0 990C0 900 0 720 0 540C0 360 0 180 0 90L0 0Z" fill="#5a96d4"></path><path d="M166 0L150.7 90C135.3 180 104.7 360 113.3 540C122 720 170 900 194 990L218 1080L0 1080L0 990C0 900 0 720 0 540C0 360 0 180 0 90L0 0Z" fill="#4b8cd0"></path><path d="M141 0L136.3 90C131.7 180 122.3 360 111.8 540C101.3 720 89.7 900 83.8 990L78 1080L0 1080L0 990C0 900 0 720 0 540C0 360 0 180 0 90L0 0Z" fill="#3982cb"></path><path d="M106 0L95 90C84 180 62 360 55.2 540C48.3 720 56.7 900 60.8 990L65 1080L0 1080L0 990C0 900 0 720 0 540C0 360 0 180 0 90L0 0Z" fill="#2478c7"></path></svg>